<svg width="48" height="48" viewBox="0 0 48 48" fill="none" xmlns="http://www.w3.org/2000/svg">
<path d="M40.4062 30.0563C40.3124 29.7188 40.5187 29.25 40.7156 28.9125C40.7758 28.812 40.8415 28.715 40.9124 28.6219C42.5964 26.1195 43.4972 23.1725 43.4999 20.1562C43.5281 11.5125 36.2343 4.5 27.2156 4.5C19.3499 4.5 12.7875 9.85312 11.25 16.9594C11.0199 18.0126 10.9036 19.0875 10.9031 20.1656C10.9031 28.8188 17.9156 36.0188 26.9343 36.0188C28.3687 36.0188 30.2999 35.5875 31.3593 35.2969C32.4187 35.0063 33.4687 34.6219 33.7406 34.5188C34.0193 34.4137 34.3146 34.3597 34.6125 34.3594C34.9374 34.3581 35.2594 34.4219 35.5593 34.5469L40.8749 36.4313C40.9915 36.4806 41.1147 36.5122 41.2406 36.525C41.4395 36.525 41.6302 36.446 41.7709 36.3053C41.9116 36.1647 41.9906 35.9739 41.9906 35.775C41.984 35.6892 41.9683 35.6043 41.9437 35.5219L40.4062 30.0563Z" stroke="white" stroke-width="2" stroke-miterlimit="10" stroke-linecap="round"/>
<path d="M6.23068 21.75C5.00109 23.959 4.40627 26.465 4.51199 28.9909C4.61772 31.5168 5.41986 33.9643 6.82974 36.0628C7.04631 36.39 7.16818 36.6431 7.13068 36.8128C7.09318 36.9825 6.01224 42.6131 6.01224 42.6131C5.98625 42.7449 5.99611 42.8812 6.0408 43.0079C6.08549 43.1345 6.16337 43.2469 6.26631 43.3331C6.40366 43.4426 6.57444 43.5015 6.75006 43.5C6.8439 43.5003 6.93678 43.4811 7.02287 43.4437L12.2926 41.3812C12.6552 41.2383 13.0598 41.245 13.4176 41.4C15.1932 42.0919 17.1563 42.525 19.1204 42.525C21.7559 42.5278 24.3452 41.8327 26.6251 40.5103" stroke="white" stroke-width="2" stroke-miterlimit="10" stroke-linecap="round"/>
</svg>
