<svg width="49" height="48" viewBox="0 0 49 48" fill="none" xmlns="http://www.w3.org/2000/svg">
<path d="M24.5 26.4375C25.8462 26.4375 26.9375 25.3462 26.9375 24C26.9375 22.6538 25.8462 21.5625 24.5 21.5625C23.1538 21.5625 22.0625 22.6538 22.0625 24C22.0625 25.3462 23.1538 26.4375 24.5 26.4375Z" fill="white"/>
<path d="M32.9375 26.4375C34.2837 26.4375 35.375 25.3462 35.375 24C35.375 22.6538 34.2837 21.5625 32.9375 21.5625C31.5913 21.5625 30.5 22.6538 30.5 24C30.5 25.3462 31.5913 26.4375 32.9375 26.4375Z" fill="white"/>
<path d="M16.0625 26.4375C17.4087 26.4375 18.5 25.3462 18.5 24C18.5 22.6538 17.4087 21.5625 16.0625 21.5625C14.7163 21.5625 13.625 22.6538 13.625 24C13.625 25.3462 14.7163 26.4375 16.0625 26.4375Z" fill="white"/>
<path d="M15.5 34.5L3.5 24L15.5 13.5" stroke="white" stroke-width="2" stroke-miterlimit="10" stroke-linecap="square"/>
<path d="M33.5 34.5L45.5 24L33.5 13.5" stroke="white" stroke-width="2" stroke-miterlimit="10" stroke-linecap="square"/>
</svg>
